<svg width="286" height="36" viewBox="0 0 286 36" fill="none" xmlns="http://www.w3.org/2000/svg">
<g clip-path="url(#clip0_1292_2629)">
<path d="M49.8475 7.04634C49.9713 7.03695 50.0956 7.05353 50.2126 7.09503C50.3296 7.13652 50.4367 7.20202 50.527 7.28733C50.7057 7.49778 50.8405 7.74201 50.9233 8.00557L57.8361 25.8623C57.8538 25.927 57.8633 25.9937 57.8645 26.0607C57.8654 26.1612 57.8457 26.2609 57.8068 26.3535C57.7678 26.4461 57.7104 26.5298 57.638 26.5994C57.5676 26.6704 57.4837 26.7267 57.3914 26.7648C57.299 26.8029 57.1999 26.8222 57.1 26.8215H55.071C54.9298 26.8372 54.7869 26.8244 54.6507 26.7838C54.5146 26.7433 54.3879 26.6757 54.2783 26.5852C54.1438 26.4503 54.0379 26.2896 53.9669 26.1127L52.7542 22.9751H43.8407L42.6327 26.1174C42.5617 26.2943 42.4557 26.455 42.3213 26.59C42.2123 26.6801 42.0865 26.7474 41.9511 26.788C41.8158 26.8286 41.6737 26.8416 41.5332 26.8262H39.4948C39.2937 26.825 39.1012 26.7444 38.959 26.602C38.8168 26.4596 38.7363 26.2668 38.7351 26.0655C38.7339 25.9982 38.7434 25.9312 38.7634 25.867L45.6762 8.00557C45.755 7.73989 45.8884 7.49364 46.0679 7.2826C46.1581 7.1973 46.2652 7.1318 46.3822 7.0903C46.4992 7.0488 46.6236 7.03222 46.7473 7.04162L49.8475 7.04634ZM51.3999 19.4501L48.2998 11.4172L45.1949 19.4501H51.3999Z" fill="black"/>
<path d="M72.1387 23.2946C72.2391 23.2936 72.3385 23.3133 72.4311 23.3523C72.5236 23.3913 72.6071 23.4488 72.6766 23.5214C72.7472 23.5911 72.8031 23.6743 72.8412 23.766C72.8793 23.8577 72.8987 23.956 72.8984 24.0553V26.0636C72.899 26.1636 72.8798 26.2628 72.8418 26.3554C72.8039 26.448 72.7479 26.5321 72.6773 26.6029C72.6066 26.6737 72.5226 26.7297 72.4301 26.7677C72.3377 26.8057 72.2386 26.825 72.1387 26.8243H59.7806C59.6807 26.825 59.5816 26.8058 59.4892 26.7676C59.3969 26.7295 59.313 26.6733 59.2426 26.6022C59.1708 26.5324 59.1141 26.4486 59.076 26.3559C59.0378 26.2633 59.0191 26.1638 59.0209 26.0636V7.80994C59.0207 7.71207 59.0403 7.61518 59.0784 7.52506C59.1165 7.43493 59.1724 7.35343 59.2426 7.28544C59.3121 7.2129 59.3957 7.15536 59.4882 7.11636C59.5807 7.07735 59.6802 7.05771 59.7806 7.05862H62.0644C62.2656 7.06105 62.4579 7.14183 62.6006 7.28385C62.7433 7.42587 62.8251 7.61795 62.8288 7.81939V23.2946H72.1387Z" fill="black"/>
<path d="M73.182 14.3765C73.2055 13.3161 73.4163 12.2682 73.8049 11.2815C74.1648 10.3689 74.7243 9.54872 75.4423 8.88109C76.2025 8.18286 77.1013 7.65312 78.08 7.32648C80.5946 6.5611 83.2837 6.5908 85.7808 7.41154C86.7143 7.75813 87.5751 8.27569 88.3194 8.93779C88.888 9.4463 89.3402 10.0717 89.6454 10.7712C89.8674 11.2797 90.0152 11.8176 90.0842 12.3683C90.0969 12.4708 90.0842 12.5749 90.0472 12.6714C90.0101 12.7678 89.9499 12.8536 89.8719 12.9212C89.7211 13.0591 89.524 13.135 89.3198 13.1338H87.036C86.8654 13.1378 86.6988 13.0827 86.5641 12.9779C86.4534 12.8885 86.3619 12.7776 86.2951 12.6518C86.2574 12.5762 86.1583 12.4108 86.0026 12.1557C85.7939 11.8514 85.5355 11.5847 85.2382 11.3666C84.8209 11.0544 84.3598 10.806 83.8698 10.6294C83.1898 10.3973 82.4739 10.2885 81.7558 10.3081C80.5225 10.2453 79.3115 10.6541 78.3678 11.4516C77.943 11.8416 77.6034 12.3153 77.3703 12.8431C77.1372 13.3709 77.0158 13.9412 77.0136 14.5183C76.9758 15.2318 76.9569 15.9973 76.9569 16.8195C76.9569 17.6417 76.9569 18.4072 77.0136 19.1207C77.0702 20.6958 77.5216 21.8314 78.3678 22.5276C79.336 23.2718 80.5368 23.6469 81.7558 23.5861C82.4014 23.592 83.0452 23.5158 83.6716 23.3592C84.2221 23.2254 84.7371 22.9739 85.1815 22.6221C85.6194 22.2674 85.9603 21.8073 86.1724 21.2849C86.4215 20.6307 86.5401 19.934 86.5216 19.2341V19.0073H83.0817C82.9814 19.0082 82.8819 18.9886 82.7894 18.9496C82.6969 18.9105 82.6133 18.853 82.5438 18.7805C82.4715 18.7118 82.4141 18.6289 82.3751 18.5371C82.3362 18.4452 82.3165 18.3463 82.3173 18.2465V16.2336C82.3165 16.1338 82.3362 16.0349 82.3751 15.943C82.4141 15.8512 82.4715 15.7683 82.5438 15.6996C82.6133 15.6271 82.6969 15.5695 82.7894 15.5305C82.8819 15.4915 82.9814 15.4719 83.0817 15.4728H89.5699C89.6702 15.4719 89.7697 15.4915 89.8622 15.5305C89.9547 15.5695 90.0383 15.6271 90.1078 15.6996C90.1795 15.7685 90.2362 15.8515 90.2743 15.9434C90.3125 16.0353 90.3313 16.1341 90.3296 16.2336V19.3428C90.3422 20.4076 90.1615 21.466 89.7964 22.4662C89.4517 23.3962 88.9017 24.2361 88.1873 24.9233C87.4171 25.6433 86.5038 26.1924 85.5071 26.5346C83.0734 27.2938 80.4666 27.2938 78.0328 26.5346C77.0543 26.2031 76.1592 25.663 75.4092 24.9516C74.6931 24.2723 74.1356 23.4429 73.7766 22.5229C73.3995 21.5235 73.1937 20.4675 73.1679 19.3995C73.1679 19.0404 73.1348 18.6482 73.1254 18.2134C73.116 17.7787 73.1254 17.3346 73.1254 16.8857C73.1254 16.4368 73.1254 15.9879 73.1254 15.5579C73.1254 15.1279 73.1632 14.7262 73.182 14.3765Z" fill="black"/>
<path d="M105.599 23.2942C105.8 23.2967 105.993 23.3775 106.135 23.5195C106.278 23.6615 106.36 23.8536 106.363 24.055V26.0632C106.364 26.1637 106.345 26.2634 106.306 26.356C106.267 26.4487 106.209 26.5323 106.137 26.6019C106.067 26.6729 105.983 26.7292 105.89 26.7673C105.798 26.8054 105.699 26.8247 105.599 26.824H93.2126C93.0115 26.8228 92.819 26.7422 92.6768 26.5998C92.5346 26.4574 92.4541 26.2646 92.4529 26.0632V7.80962C92.4523 7.70986 92.4721 7.61104 92.5111 7.51923C92.55 7.42741 92.6073 7.34453 92.6794 7.27566C92.748 7.20326 92.8307 7.14577 92.9224 7.10675C93.0142 7.06773 93.1129 7.04802 93.2126 7.04885H105.391C105.593 7.05128 105.785 7.13206 105.928 7.27408C106.07 7.4161 106.152 7.60818 106.156 7.80962V9.81785C106.157 9.91917 106.138 10.0197 106.1 10.1137C106.063 10.2077 106.006 10.2932 105.935 10.3652C105.864 10.4373 105.779 10.4946 105.686 10.5336C105.593 10.5727 105.493 10.5928 105.391 10.5928H96.2608V15.0865H104.754C104.854 15.0857 104.953 15.1054 105.045 15.1444C105.136 15.1834 105.219 15.2409 105.288 15.3133C105.36 15.3829 105.417 15.4666 105.456 15.5592C105.495 15.6518 105.515 15.7515 105.514 15.852V17.8555C105.515 17.956 105.495 18.0556 105.456 18.1483C105.417 18.2409 105.36 18.3246 105.288 18.3942C105.219 18.4659 105.136 18.5227 105.044 18.5609C104.952 18.5991 104.854 18.618 104.754 18.6163H96.2608V23.3084L105.599 23.2942Z" fill="black"/>
<path d="M109.209 26.8278C109.008 26.8266 108.815 26.746 108.673 26.6036C108.531 26.4612 108.45 26.2684 108.449 26.0671V7.81343C108.452 7.71389 108.475 7.61604 108.518 7.52586C108.56 7.43568 108.62 7.35506 108.694 7.28893C108.763 7.21653 108.846 7.15903 108.937 7.12001C109.029 7.08099 109.128 7.06129 109.228 7.06212H117.551C118.586 7.02995 119.615 7.2184 120.571 7.61497C121.311 7.93053 121.975 8.40285 122.515 8.99947C122.988 9.52276 123.349 10.1369 123.577 10.8045C123.779 11.3918 123.887 12.0073 123.898 12.6285C123.905 13.1411 123.83 13.6516 123.676 14.1405C123.546 14.5411 123.36 14.9212 123.124 15.2699C122.934 15.5501 122.716 15.8098 122.473 16.0448C122.317 16.2067 122.143 16.3494 121.954 16.4701C122.585 16.9271 123.125 17.4994 123.544 18.157C124.052 18.9779 124.304 19.9324 124.266 20.8976C124.263 21.6261 124.129 22.3482 123.869 23.0287C123.608 23.727 123.216 24.3686 122.713 24.9188C122.184 25.4998 121.542 25.9662 120.826 26.2891C119.994 26.651 119.095 26.8283 118.188 26.8089L109.209 26.8278ZM120.062 12.7608C120.082 12.4561 120.032 12.1508 119.914 11.8688C119.797 11.5868 119.617 11.3358 119.387 11.1353C118.754 10.7218 118.002 10.5322 117.249 10.5966H112.257V14.9486H117.249C118.009 15.0028 118.764 14.8016 119.396 14.3768C119.625 14.1771 119.804 13.9275 119.921 13.6474C120.038 13.3672 120.089 13.0639 120.071 12.7608H120.062ZM112.247 23.2981H117.466C118.5 23.2981 119.259 23.076 119.736 22.6365C119.968 22.409 120.153 22.1374 120.278 21.8376C120.404 21.5378 120.469 21.2158 120.469 20.8905C120.469 20.5653 120.404 20.2433 120.278 19.9435C120.153 19.6437 119.968 19.3721 119.736 19.1446C119.097 18.6473 118.296 18.4064 117.49 18.4689H112.257L112.247 23.2981Z" fill="black"/>
<path d="M134.434 7.04883C136.784 7.04883 138.571 7.59538 139.795 8.68849C141.019 9.78159 141.629 11.2968 141.626 13.2342C141.662 14.4748 141.334 15.6989 140.682 16.7545C140.012 17.7552 139.037 18.5126 137.903 18.9139L141.796 25.8931C141.848 25.9891 141.877 26.0958 141.88 26.205C141.88 26.2871 141.864 26.3683 141.832 26.4441C141.801 26.5198 141.754 26.5884 141.696 26.6461C141.638 26.7037 141.568 26.7491 141.492 26.7796C141.416 26.8101 141.335 26.8252 141.253 26.824H138.856C138.707 26.8372 138.557 26.8207 138.414 26.7753C138.271 26.7298 138.139 26.6564 138.025 26.5594C137.875 26.4222 137.746 26.2629 137.643 26.0868L133.948 19.5046H130.197V26.0632C130.198 26.1637 130.178 26.2634 130.139 26.356C130.1 26.4486 130.043 26.5323 129.971 26.6019C129.9 26.6729 129.816 26.7291 129.724 26.7673C129.632 26.8054 129.533 26.8247 129.433 26.824H127.149C127.049 26.8247 126.95 26.8054 126.858 26.7673C126.765 26.7291 126.681 26.6729 126.611 26.6019C126.538 26.5323 126.481 26.4486 126.442 26.356C126.403 26.2634 126.384 26.1637 126.384 26.0632V7.80959C126.388 7.60816 126.47 7.41607 126.613 7.27405C126.755 7.13204 126.948 7.05125 127.149 7.04883H134.434ZM130.188 15.9465H134.279C135.169 15.9896 136.055 15.7956 136.846 15.3842C137.483 15.0061 137.789 14.2926 137.789 13.2342C137.789 12.1757 137.469 11.4764 136.846 11.1173C136.052 10.7306 135.174 10.5503 134.293 10.5928H130.202L130.188 15.9465Z" fill="black"/>
<path d="M153.871 6.81896C153.995 6.80957 154.119 6.82615 154.236 6.86764C154.353 6.90914 154.46 6.97464 154.55 7.05995C154.726 7.27198 154.859 7.51583 154.942 7.77819L161.855 25.6349C161.875 25.6991 161.884 25.7661 161.883 25.8333C161.882 26.0347 161.801 26.2275 161.659 26.3699C161.517 26.5123 161.324 26.5929 161.123 26.5941H159.09C158.949 26.61 158.807 26.5973 158.672 26.5567C158.536 26.5161 158.41 26.4484 158.302 26.3578C158.167 26.2229 158.061 26.0622 157.99 25.8853L156.778 22.7478H147.859L146.642 25.8853C146.574 26.0627 146.47 26.2238 146.335 26.3578C146.226 26.4483 146.099 26.5159 145.963 26.5565C145.827 26.597 145.684 26.6098 145.542 26.5941H143.513C143.414 26.5948 143.314 26.5756 143.222 26.5374C143.13 26.4993 143.046 26.443 142.975 26.372C142.903 26.3024 142.846 26.2188 142.807 26.1261C142.768 26.0335 142.748 25.9339 142.749 25.8333C142.748 25.7661 142.757 25.6991 142.777 25.6349L149.69 7.77819C149.773 7.51463 149.908 7.2704 150.086 7.05995C150.176 6.97501 150.282 6.90971 150.398 6.86821C150.515 6.82672 150.638 6.80994 150.761 6.81896H153.871ZM155.409 19.2227L152.304 11.1898L149.204 19.2227H155.409Z" fill="black"/>
<path d="M15.8701 0.968215V20.2648C15.8701 20.356 15.8461 20.4456 15.8004 20.5245C15.7547 20.6034 15.689 20.6689 15.6099 20.7142L0.773475 29.2602C0.676013 29.3151 0.563436 29.337 0.452514 29.3227C0.341592 29.3083 0.238263 29.2585 0.157921 29.1807C0.0775794 29.1029 0.0245248 29.0011 0.00666201 28.8907C-0.0112008 28.7802 0.00708413 28.667 0.0587926 28.5678L14.8933 0.723913C15.1474 0.249249 15.8701 0.427829 15.8701 0.968215Z" fill="#DB0170"/>
<path d="M16.8475 0.968215V20.2648C16.8476 20.356 16.8717 20.4455 16.9174 20.5244C16.963 20.6033 17.0287 20.6688 17.1077 20.7142L31.9441 29.2602C32.0418 29.3164 32.1551 29.3393 32.2669 29.3254C32.3788 29.3116 32.4831 29.2616 32.564 29.1832C32.645 29.1047 32.6982 29.0021 32.7157 28.8907C32.7331 28.7793 32.7139 28.6652 32.6608 28.5658L17.8237 0.723913C17.5695 0.249249 16.8475 0.427829 16.8475 0.968215Z" fill="#00F2C8"/>
<path d="M16.0697 21.6355L1.51066 30.0573C1.41176 30.1145 1.33449 30.2028 1.29084 30.3084C1.24719 30.414 1.2396 30.5311 1.26924 30.6415C1.29888 30.7518 1.3641 30.8494 1.45479 30.9189C1.54547 30.9884 1.65655 31.026 1.77079 31.0259H30.8889C31.0031 31.0259 31.1141 30.9881 31.2047 30.9186C31.2952 30.849 31.3603 30.7515 31.3899 30.6412C31.4195 30.5308 31.4118 30.4138 31.3682 30.3083C31.3245 30.2027 31.2472 30.1145 31.1484 30.0573L16.5893 21.6329C16.5101 21.5876 16.4204 21.564 16.3292 21.5645C16.238 21.5649 16.1485 21.5894 16.0697 21.6355Z" fill="#3542FE"/>
</g>
<path d="M180.951 26.1672L180.711 12.6194C180.573 4.40131 182.636 0 186.556 0C187.622 0 188.447 0.687704 188.447 1.58172C188.447 2.40697 187.794 3.06029 186.866 3.06029C185.662 3.06029 185.662 1.89119 184.803 1.89119C184.012 1.89119 183.634 2.64766 183.702 7.11774L183.943 17.9835C184.184 28.7805 182.017 33.2849 178.098 33.2849C176.825 33.2849 176 32.4597 176 31.5313C176 30.6716 176.722 30.0183 177.513 30.0183C178.613 30.0183 179.129 31.2218 179.782 31.2218C180.608 31.2218 181.02 30.4309 180.951 26.1672Z" fill="black"/>
<path d="M205.954 27.1987H198.698V26.1672C200.727 25.9609 200.933 25.6858 200.933 23.4164V17.7084C200.933 15.3014 200.039 13.8229 197.804 13.8229C196.429 13.8229 195.088 14.6825 194.022 15.6109V23.5195C194.022 25.8577 194.228 25.9609 196.291 26.1672V27.1987H188.727V26.1672C191.099 25.9265 191.237 25.7546 191.237 23.5195V16.5737C191.237 14.3386 191.03 14.2355 189.139 13.926V12.9976C190.858 12.6882 192.543 12.2755 194.022 11.6222V14.3386C194.71 13.8229 195.432 13.3071 196.291 12.7569C197.254 12.1036 198.217 11.691 199.214 11.691C201.965 11.691 203.719 13.6166 203.719 16.9519V23.5195C203.719 25.8577 203.925 25.9265 205.954 26.1672V27.1987Z" fill="black"/>
<path d="M216.548 25.9265L214.279 27.13C213.66 27.4738 213.075 27.6114 212.731 27.6114C210.531 27.6114 209.293 26.2359 209.293 23.5195V13.5822H206.886L206.714 13.1696L207.711 12.1036H209.293V9.69664L211.562 7.35844L212.078 7.42721V12.1036H215.998C216.342 12.4818 216.239 13.3071 215.792 13.5822H212.078V22.2816C212.078 25.0325 213.213 25.5139 214.072 25.5139C214.932 25.5139 215.757 25.17 216.204 24.9293L216.548 25.9265Z" fill="black"/>
<path d="M229.877 23.4507L230.496 24.3104C228.261 27.0268 225.888 27.6114 224.754 27.6114C220.524 27.6114 218.014 24.1384 218.014 20.2185C218.014 17.8459 218.908 15.7141 220.284 14.2011C221.728 12.6194 223.585 11.691 225.373 11.691H225.407C228.295 11.691 230.668 14.2699 230.668 17.0207C230.668 17.7428 230.53 18.0523 229.877 18.1898C229.293 18.293 224.926 18.6368 220.799 18.7743C220.868 23.2788 223.481 25.17 225.888 25.17C227.333 25.17 228.639 24.6198 229.877 23.4507ZM224.582 13.0664C223.034 13.0664 221.522 14.4762 220.971 17.227C222.863 17.227 224.788 17.1926 226.782 17.1239C227.436 17.1239 227.642 16.9519 227.642 16.4361C227.642 14.6481 226.439 13.0664 224.582 13.0664Z" fill="black"/>
<path d="M247.812 12.1036L247.984 12.4131C247.709 12.9289 246.987 13.8916 246.471 14.2011L244.511 14.0636C245.096 14.82 245.508 15.886 245.508 17.0895C245.508 20.7343 242.379 22.5223 239.354 22.5223C238.803 22.5223 238.15 22.4536 237.6 22.3504C237.118 22.6943 236.568 23.3132 236.568 23.7946C236.568 24.4135 237.187 25.0668 238.7 25.0668C240.041 25.0668 241.245 25.0325 242.379 25.0325C244.614 25.0325 247.434 25.7202 247.434 29.1243C247.434 32.666 243.308 35.8982 238.735 35.8982C234.849 35.8982 232.717 33.6632 232.683 31.6688C232.683 30.9123 232.992 30.2246 233.542 29.7089C234.23 29.0212 235.537 27.9896 236.293 27.405C235.124 27.0268 234.23 26.2703 233.783 25.5482C233.474 25.0325 233.37 24.4135 233.405 24.1041C234.78 23.5883 235.846 22.6255 236.396 21.9722C234.918 21.3189 233.439 19.7715 233.439 17.3989C233.439 13.5134 237.015 11.691 239.663 11.691H239.697C240.866 11.691 242.036 12.0005 243.067 12.585C244.718 12.5162 246.437 12.3099 247.812 12.1036ZM239.354 12.8601C237.841 12.8601 236.465 14.3043 236.465 16.8832C236.465 19.4621 237.806 21.3189 239.697 21.3189C241.245 21.2845 242.586 19.9091 242.586 17.2958C242.586 14.7169 241.279 12.8601 239.354 12.8601ZM240.11 27.5082C238.459 27.5082 237.669 27.7145 237.05 28.2303C236.121 28.9868 235.502 29.9152 235.502 30.8436C235.502 32.7004 237.462 34.0414 240.041 34.0414C243.239 34.0414 244.993 32.3909 244.993 30.2934C244.993 29.1587 244.408 28.3334 243.48 27.9552C242.586 27.577 241.589 27.5082 240.11 27.5082Z" fill="black"/>
<path d="M254.599 15.3702H254.668C255.768 13.5478 257.212 11.691 258.897 11.691C260.101 11.691 260.926 12.6194 260.926 13.479C260.926 14.2011 260.513 14.9232 259.791 15.2327C259.413 15.4046 259.104 15.3702 258.897 15.1295C258.381 14.6481 257.969 14.4418 257.419 14.4418C256.49 14.4418 255.321 15.5077 254.599 17.4677V23.5195C254.599 25.7889 254.771 25.9609 257.453 26.1672V27.1987H249.373V26.1672C251.573 25.9609 251.814 25.7889 251.814 23.5539V16.5393C251.814 14.3043 251.676 14.1667 249.648 13.926V12.9976C251.401 12.7225 252.949 12.3099 254.599 11.6222V15.3702Z" fill="black"/>
<path d="M276.498 25.8577L273.473 27.6114C272.957 27.6114 272.235 27.3019 271.891 26.958C271.409 26.4766 271.203 25.9952 271.031 25.4451C269.621 26.3735 268.04 27.6114 266.905 27.6114C264.464 27.6114 262.71 25.5826 262.71 23.3476C262.71 21.6627 263.638 20.528 265.564 19.8747C267.696 19.187 270.24 18.2242 270.962 17.6396V17.1239C270.962 14.6825 269.759 13.3071 268.074 13.3071C267.386 13.3071 266.871 13.5822 266.527 13.9948C266.08 14.4418 265.805 15.1983 265.495 16.2298C265.323 16.78 264.945 17.0551 264.429 17.0551C263.776 17.0551 262.882 16.333 262.882 15.5077C262.882 14.992 263.329 14.5793 264.017 14.098C264.945 13.4102 267.18 12.1036 269.209 11.691C270.275 11.691 271.341 12.0005 272.097 12.6194C273.301 13.6509 273.644 15.0607 273.644 16.8488V23.1413C273.644 24.723 274.263 25.2388 274.848 25.2388C275.261 25.2388 275.776 25.0325 276.12 24.8605L276.498 25.8577ZM270.962 24.2072V18.9463C270.206 19.3245 268.555 20.0466 267.833 20.3905C266.492 20.975 265.736 21.6283 265.736 22.8662C265.736 24.6542 267.111 25.4451 268.143 25.4451C269.071 25.4451 270.343 24.8262 270.962 24.2072Z" fill="black"/>
<path d="M285.271 27.1987H277.431V26.1672C279.632 25.9609 279.941 25.7546 279.941 23.5195V7.53037C279.941 5.22656 279.735 5.15779 277.5 4.95148V3.98869C279.391 3.78238 281.523 3.19783 282.726 2.7852V23.5195C282.726 25.7889 283.002 25.9609 285.271 26.1672V27.1987Z" fill="black"/>
<defs>
<clipPath id="clip0_1292_2629">
<rect width="162" height="31.1126" fill="white"/>
</clipPath>
</defs>
</svg>
