<svg width="636" height="596" viewBox="0 0 636 596" fill="none" xmlns="http://www.w3.org/2000/svg">
<rect width="636" height="596" fill="white"/>
<path d="M120.057 437.134C121.152 437.134 122.064 437.512 122.611 438.079C123.159 438.646 123.706 439.59 124.071 440.913L150.708 512.345C150.708 512.534 150.89 512.912 150.89 513.101C150.89 513.857 150.526 514.612 149.978 515.179C149.431 515.746 148.701 516.124 147.971 516.124H140.126C138.667 516.124 137.572 515.746 137.025 515.179C136.477 514.612 136.112 513.857 135.747 513.29L131.004 500.817H96.8866L92.143 513.29C91.9605 513.857 91.5957 514.423 90.8659 515.179C90.3185 515.746 89.2239 516.124 87.7643 516.124H79.9191C79.1894 516.124 78.4596 515.746 77.9122 515.179C77.3649 514.612 77 513.857 77 513.101C77 512.723 77 512.534 77.1825 512.345L103.82 440.913C104.184 439.59 104.732 438.646 105.279 438.079C105.826 437.512 106.739 437.134 107.833 437.134H120.057ZM126.078 486.645L114.036 454.519L101.995 486.645H126.078Z" fill="#272CC8"/>
<path d="M206.171 502.14C206.901 502.14 207.631 502.518 208.178 503.085C208.726 503.652 209.091 504.408 209.091 505.164V513.101C209.091 513.857 208.726 514.612 208.178 515.179C207.631 515.746 206.901 516.124 206.171 516.124H158.371C157.641 516.124 156.911 515.746 156.364 515.179C155.816 514.612 155.451 513.857 155.451 513.101V440.157C155.451 439.401 155.816 438.646 156.364 438.079C156.911 437.512 157.641 437.134 158.371 437.134H167.128C167.858 437.134 168.588 437.512 169.135 438.079C169.682 438.646 170.047 439.401 170.047 440.157V502.14H206.171Z" fill="#272CC8"/>
<path d="M210.186 466.425C210.369 461.889 211.098 457.732 212.558 454.141C214.017 450.362 216.207 447.149 218.943 444.504C221.68 441.858 225.147 439.779 229.16 438.268C233.174 436.756 237.918 436 243.209 436C249.594 436 254.703 436.756 258.899 438.457C263.095 440.157 266.197 442.236 268.751 444.504C271.123 446.96 272.947 449.417 273.859 451.874C274.772 454.33 275.319 456.598 275.501 458.299C275.501 459.244 275.319 460 274.772 460.566C274.224 461.133 273.495 461.322 272.582 461.322H263.825C263.095 461.322 262.365 461.133 262.001 460.755C261.453 460.377 261.271 459.999 260.906 459.433C260.723 459.055 260.359 458.488 259.811 457.543C259.264 456.598 258.169 455.464 256.892 454.33C255.615 453.196 253.79 452.252 251.601 451.307C249.412 450.362 246.675 449.984 243.391 449.984C237.918 449.984 233.539 451.496 230.255 454.519C226.971 457.543 225.147 461.7 224.964 466.803C224.782 469.637 224.782 472.661 224.782 476.062C224.782 479.275 224.782 482.487 224.964 485.322C225.147 491.558 226.971 496.093 230.255 498.928C233.539 501.762 237.918 503.085 243.391 503.085C246.128 503.085 248.5 502.707 250.871 502.14C253.061 501.573 255.068 500.629 256.71 499.117C258.352 497.794 259.629 495.904 260.541 493.826C261.453 491.558 261.818 488.912 261.818 485.7V484.755H248.5C247.77 484.755 247.04 484.377 246.493 483.81C245.945 483.243 245.58 482.487 245.58 481.731V473.794C245.58 473.039 245.945 472.283 246.493 471.716C247.04 471.149 247.77 470.771 248.5 470.771H273.677C274.407 470.771 275.137 471.149 275.684 471.716C276.231 472.283 276.596 473.039 276.596 473.794V486.267C276.596 490.802 275.866 494.959 274.589 498.739C273.13 502.518 271.123 505.731 268.386 508.565C265.649 511.4 262.183 513.479 257.987 514.99C253.79 516.502 249.047 517.258 243.391 517.258C237.918 517.258 232.992 516.502 228.978 514.99C224.964 513.479 221.498 511.4 218.761 508.754C216.024 506.109 214.017 502.707 212.558 498.928C211.098 495.148 210.369 490.991 210.186 486.456C210.186 484.944 210.004 483.432 210.004 481.731C210.004 480.031 210.004 478.141 210.004 476.44C210.004 474.55 210.004 472.85 210.004 471.149C210.186 469.448 210.186 467.747 210.186 466.425Z" fill="#272CC8"/>
<path d="M335.524 502.14C336.254 502.14 336.984 502.518 337.531 503.085C338.079 503.652 338.443 504.408 338.443 505.164V513.101C338.443 513.857 338.079 514.612 337.531 515.179C336.984 515.746 336.254 516.124 335.524 516.124H287.724C286.994 516.124 286.264 515.746 285.717 515.179C285.169 514.612 284.804 513.857 284.804 513.101V440.157C284.804 439.401 285.169 438.646 285.717 438.079C286.264 437.512 286.994 437.134 287.724 437.134H334.795C335.524 437.134 336.254 437.512 336.801 438.079C337.349 438.646 337.714 439.401 337.714 440.157V448.094C337.714 448.85 337.349 449.606 336.801 450.173C336.254 450.74 335.524 451.118 334.795 451.118H299.583V469.07H332.423C333.153 469.07 333.882 469.448 334.43 470.015C334.977 470.582 335.342 471.338 335.342 472.094V480.031C335.342 480.786 334.977 481.542 334.43 482.109C333.882 482.676 333.153 483.054 332.423 483.054H299.583V501.762H335.524V502.14Z" fill="#272CC8"/>
<path d="M349.574 516.124C348.844 516.124 348.114 515.746 347.567 515.179C347.02 514.612 346.655 513.857 346.655 513.101V440.157C346.655 439.401 347.02 438.646 347.567 438.079C348.114 437.512 348.844 437.134 349.574 437.134H381.684C386.428 437.134 390.259 437.89 393.361 439.401C396.462 440.913 399.017 442.803 400.841 444.882C402.665 447.149 404.125 449.606 404.855 452.063C405.767 454.708 406.132 457.165 406.132 459.433C406.132 461.7 405.767 463.779 405.22 465.48C404.672 467.18 403.943 468.692 403.03 470.015C402.118 471.338 401.388 472.283 400.476 473.039C399.564 473.794 399.017 474.361 398.469 474.739C400.659 476.251 402.848 478.519 404.672 481.542C406.497 484.377 407.591 488.156 407.591 492.503C407.591 495.337 407.044 498.172 406.132 501.006C405.037 503.841 403.578 506.298 401.571 508.565C399.564 510.833 397.192 512.723 394.273 514.046C391.354 515.368 387.887 516.124 384.056 516.124H349.574ZM391.536 459.999C391.536 457.165 390.624 454.897 388.982 453.574C387.158 452.063 384.421 451.307 380.772 451.307H361.433V468.692H380.772C384.603 468.692 387.34 467.936 388.982 466.425C390.624 464.913 391.536 462.834 391.536 459.999ZM361.433 502.14H381.684C385.698 502.14 388.617 501.195 390.442 499.495C392.266 497.794 393.178 495.337 393.178 492.503C393.178 489.668 392.266 487.211 390.259 485.511C388.252 483.621 385.516 482.865 381.502 482.865H361.25V502.14H361.433Z" fill="#272CC8"/>
<path d="M446.999 437.134C456.121 437.134 463.054 439.401 467.798 443.748C472.541 448.094 474.913 454.141 474.913 461.889C474.913 467.369 473.636 472.094 471.264 475.873C468.892 479.842 465.243 482.676 460.5 484.566L475.643 512.534C475.825 512.912 476.008 513.479 476.008 513.857C476.008 514.612 475.825 515.179 475.278 515.557C474.73 516.124 474.183 516.313 473.636 516.313H464.331C462.872 516.313 461.777 515.935 461.047 515.179C460.317 514.423 459.952 513.857 459.587 513.29L445.357 487.022H430.761V513.29C430.761 514.046 430.396 514.801 429.849 515.368C429.302 515.935 428.572 516.313 427.842 516.313H419.085C418.355 516.313 417.625 515.935 417.078 515.368C416.53 514.801 416.166 514.046 416.166 513.29V440.157C416.166 439.401 416.53 438.646 417.078 438.079C417.625 437.512 418.355 437.134 419.085 437.134H446.999ZM430.761 472.661H446.634C450.83 472.661 454.114 471.905 456.486 470.393C459.04 468.881 460.135 466.047 460.135 461.889C460.135 457.732 458.858 454.897 456.486 453.385C453.932 451.874 450.648 451.307 446.634 451.307H430.761V472.661Z" fill="#272CC8"/>
<path d="M522.167 437.134C523.261 437.134 524.174 437.512 524.721 438.079C525.268 438.646 525.816 439.59 526.181 440.913L552.818 512.345C552.818 512.534 553 512.912 553 513.101C553 513.857 552.635 514.612 552.088 515.179C551.541 515.746 550.811 516.124 550.081 516.124H542.236C540.776 516.124 539.682 515.746 539.134 515.179C538.587 514.612 538.222 513.857 537.857 513.29L533.114 500.817H498.996L494.253 513.29C494.07 513.857 493.705 514.423 492.975 515.179C492.428 515.746 491.333 516.124 489.874 516.124H482.029C481.299 516.124 480.569 515.746 480.022 515.179C479.475 514.612 479.11 513.857 479.11 513.101C479.11 512.723 479.11 512.534 479.292 512.345L505.929 440.913C506.294 439.59 506.841 438.646 507.389 438.079C507.936 437.512 508.848 437.134 509.943 437.134H522.167ZM528.187 486.645L516.146 454.519L504.105 486.645H528.187Z" fill="#272CC8"/>
<path d="M309.517 97.8206V288.971C309.517 289.874 309.278 290.762 308.825 291.543C308.372 292.325 307.72 292.973 306.935 293.423L159.677 378.078C158.71 378.622 157.592 378.839 156.491 378.697C155.39 378.555 154.365 378.062 153.567 377.291C152.77 376.52 152.243 375.512 152.066 374.418C151.889 373.324 152.07 372.202 152.584 371.219L299.821 95.4005C302.344 90.6986 309.517 92.4676 309.517 97.8206Z" fill="#DB0170"/>
<path d="M319.218 97.8206V288.971C319.219 289.874 319.458 290.761 319.911 291.542C320.364 292.324 321.016 292.972 321.8 293.423L469.057 378.078C470.027 378.635 471.152 378.862 472.262 378.725C473.372 378.587 474.407 378.092 475.21 377.315C476.014 376.538 476.542 375.521 476.715 374.418C476.889 373.314 476.697 372.185 476.171 371.199L328.906 95.4005C326.384 90.6986 319.218 92.4676 319.218 97.8206Z" fill="#00F2C8"/>
<path d="M311.499 302.544L166.994 385.969C166.012 386.536 165.245 387.41 164.812 388.457C164.379 389.503 164.304 390.663 164.598 391.756C164.892 392.849 165.539 393.815 166.439 394.504C167.339 395.192 168.442 395.565 169.576 395.564H458.585C459.718 395.564 460.82 395.19 461.719 394.501C462.618 393.812 463.264 392.846 463.557 391.753C463.851 390.66 463.775 389.501 463.342 388.455C462.908 387.41 462.141 386.536 461.16 385.969L316.656 302.518C315.87 302.069 314.979 301.835 314.074 301.84C313.168 301.845 312.28 302.087 311.499 302.544Z" fill="#3542FE"/>
</svg>
